<svg xmlns="http://www.w3.org/2000/svg" width="16" height="16" viewBox="0 0 32 32">
	<circle cx="16" cy="16" r="14" fill="#40b6e0" data-name="Group" opacity=".5"/>
	<path
		d="M21.232 19.963l-1.082-1.107a4.955 4.955 0 0 1-3.768 1.561A4.247 4.247 0 0 1 12.328 16v-.033a4.29 4.29 0 0 1 4.13-4.444l.04-.002a5.235 5.235 0 0 1 3.647 1.426l1.022-1.11A6.267 6.267 0 0 0 16.56 10h-.364a6.06 6.06 0 0 0-6.196 5.92L10 16v.033A5.988 5.988 0 0 0 16.005 22h.507a6.247 6.247 0 0 0 4.72-2.037z"
		fill="#231f20" opacity=".6" style="isolation:isolate"/>
	<g transform="matrix(.5 0 0 .5 16 16.5)" fill-rule="evenodd" stroke-width=".828">
		<circle cx="16" cy="8" r="6.586" fill="#6bab5b" stroke="#3b972e"/>
		<circle cx="7" cy="24" r="6.586" fill="#d66661" stroke="#c93d39"/>
		<circle cx="25" cy="23.994" r="6.586" fill="#aa7dc0" stroke="#945bb0"/>
	</g>
</svg>