<svg xmlns="http://www.w3.org/2000/svg" data-name="Layer 1" viewBox="0 0 32 32"><circle cx="16" cy="16" r="14" fill="#62b543" opacity=".5"/><path d="M23.453 12.161a6.44 6.44 0 0 0-1.533-2.247 6.737 6.737 0 0 0-2.338-1.42A8.587 8.587 0 0 0 16.618 8a9.791 9.791 0 0 0-2.465.299 8.424 8.424 0 0 0-2.11.851 7.695 7.695 0 0 0-1.705 1.332 8.015 8.015 0 0 0-1.268 1.733 8.651 8.651 0 0 0-.795 2.066A9.649 9.649 0 0 0 8 16.606a8.625 8.625 0 0 0 .53 3.118 6.26 6.26 0 0 0 1.528 2.326 6.677 6.677 0 0 0 2.45 1.454 10.012 10.012 0 0 0 3.295.504 12.36 12.36 0 0 0 2.49-.24 10.99 10.99 0 0 0 2.124-.651v-1.88q-.52.196-1.095.362-.575.167-1.171.284-.596.118-1.197.186a10.338 10.338 0 0 1-1.172.069 7.046 7.046 0 0 1-2.373-.367 4.382 4.382 0 0 1-2.791-2.83 7.384 7.384 0 0 1-.357-2.394 8.352 8.352 0 0 1 .413-2.682 6.035 6.035 0 0 1 1.212-2.12 5.452 5.452 0 0 1 1.986-1.395 7.033 7.033 0 0 1 2.746-.5 5.856 5.856 0 0 1 2.057.353 4.58 4.58 0 0 1 1.635 1.028 4.715 4.715 0 0 1 1.075 1.655 6.037 6.037 0 0 1 .387 2.232 8.493 8.493 0 0 1-.092 1.278 5.071 5.071 0 0 1-.265 1.052 2.02 2.02 0 0 1-.438.715.852.852 0 0 1-.621.264.732.732 0 0 1-.29-.059.584.584 0 0 1-.245-.21 1.251 1.251 0 0 1-.173-.416 2.843 2.843 0 0 1-.066-.676v-.264q0-.206.02-.421l.214-4.102q-.285-.098-.682-.196-.398-.098-.85-.176t-.943-.128q-.49-.049-.947-.049a5.068 5.068 0 0 0-1.895.338 4.06 4.06 0 0 0-1.436.95 4.176 4.176 0 0 0-.907 1.454 5.233 5.233 0 0 0-.316 1.85 5.114 5.114 0 0 0 .235 1.591 3.499 3.499 0 0 0 .682 1.234 2.998 2.998 0 0 0 1.105.793 3.812 3.812 0 0 0 1.503.279 3.187 3.187 0 0 0 .83-.103 3.058 3.058 0 0 0 .698-.279 3.102 3.102 0 0 0 .57-.406 3.918 3.918 0 0 0 .448-.475h.153a1.704 1.704 0 0 0 .321.504 2.167 2.167 0 0 0 .494.402 2.465 2.465 0 0 0 .626.264 2.755 2.755 0 0 0 .729.093 3.06 3.06 0 0 0 1.665-.446 3.819 3.819 0 0 0 1.177-1.165 5.361 5.361 0 0 0 .698-1.63 7.508 7.508 0 0 0 .229-1.84 7.684 7.684 0 0 0-.55-2.977zM14.32 15.32a2.82 2.82 0 0 1 .377-.916 1.908 1.908 0 0 1 1.696-.89 5.271 5.271 0 0 1 .56.029 3.797 3.797 0 0 1 .479.078l-.123 2.164a6.621 6.621 0 0 1-.137 1.082 2.955 2.955 0 0 1-.306.832 1.476 1.476 0 0 1-.51.538 1.383 1.383 0 0 1-.738.191 1.25 1.25 0 0 1-1.028-.484 2.549 2.549 0 0 1-.388-1.582 4.672 4.672 0 0 1 .118-1.042z" fill="#231f20" opacity=".6" style="isolation:isolate"/><g transform="matrix(.5 0 0 .5 16 16.5)" fill-rule="evenodd" stroke-width=".828"><circle cx="16" cy="8" r="6.586" fill="#6bab5b" stroke="#3b972e"/><circle cx="7" cy="24" r="6.586" fill="#d66661" stroke="#c93d39"/><circle cx="25" cy="23.994" r="6.586" fill="#aa7dc0" stroke="#945bb0"/></g></svg>