<svg xmlns="http://www.w3.org/2000/svg" data-name="Layer 1" viewBox="0 0 32 32"><circle cx="16" cy="16" r="14" fill="#6bab5b" data-name="Group" opacity=".6"/><path d="M19.29 15.102h-2.872v9.435h-2.145v-9.435H12v-.88l2.273-.796V12.3a6.95 6.95 0 0 1 .264-2.08 3.17 3.17 0 0 1 .762-1.319 2.783 2.783 0 0 1 1.224-.697A6.042 6.042 0 0 1 18.164 8a5.619 5.619 0 0 1 1.272.135 9.345 9.345 0 0 1 1.037.299l-.551 1.652a7.361 7.361 0 0 0-.791-.229 3.941 3.941 0 0 0-.897-.1 2.609 2.609 0 0 0-.808.112 1.166 1.166 0 0 0-.563.393 1.914 1.914 0 0 0-.334.767 5.752 5.752 0 0 0-.111 1.248v1.219h2.871v1.606z" fill="#231f20" opacity=".6"/><g transform="matrix(.5 0 0 .5 16 16.5)" fill-rule="evenodd" stroke-width=".828"><circle cx="16" cy="8" r="6.586" fill="#6bab5b" stroke="#3b972e"/><circle cx="7" cy="24" r="6.586" fill="#d66661" stroke="#c93d39"/><circle cx="25" cy="24" r="6.586" fill="#aa7dc0" stroke="#945bb0"/></g></svg>